<svg version="1.1" viewBox="0.000000 0.000000 241.597360 220.057460" xmlns="http://www.w3.org/2000/svg" xmlns:xlink="http://www.w3.org/1999/xlink" id="svg2" overflow="hidden"><defs id="defs2996"></defs><g id="layer1" transform="matrix(1.000000,0.000000,0.000000,1.000000,-175.322650,-1696.476500)"><path d=" M 243.452423 1708.978638 C 216.518326 1709.209839 191.872345 1730.455322 188.370651 1757.272461 C 185.257187 1781.116455 195.700134 1804.671997 212.339203 1821.486694 C 239.854004 1849.292114 273.565521 1871.280640 295.786072 1904.034058 C 300.176941 1899.345093 305.064240 1891.968506 310.013489 1886.505005 C 335.242981 1858.654053 368.178772 1838.491699 390.878021 1808.350464 C 408.053467 1785.543945 409.980804 1750.236694 390.339996 1727.945435 C 372.090240 1707.232910 338.579895 1702.774170 315.970276 1718.691040 C 307.744354 1724.482056 300.695587 1732.061768 296.037781 1741.003418 C 285.984619 1721.683960 265.503662 1708.789185 243.452423 1708.978638 Z" id="path3925-8" stroke="none" stroke-width="5.000000" stroke-linecap="round" stroke-linejoin="round" stroke-miterlimit="4.000000" stroke-dasharray="" stroke-dashoffset="1.000000" stroke-opacity="0.980392" fill="#B76FD5" fill-opacity="1.000000"/></g></svg>